<svg width="157" height="70" viewBox="0 0 157 70" fill="none" xmlns="http://www.w3.org/2000/svg">
<path fill-rule="evenodd" clip-rule="evenodd" d="M28.3063 29.2306L30.3618 35.3971C30.5117 35.8467 30.5385 36.2482 30.4421 36.6014C30.3458 36.9547 30.1477 37.1813 29.848 37.2813L23.6816 39.3368L26.7649 48.5864C26.9148 49.0361 26.9416 49.4375 26.8452 49.7908C26.7489 50.1441 26.5508 50.3707 26.2511 50.4706L22.1401 51.841C21.8404 51.9409 21.5459 51.8785 21.2569 51.6537C20.9678 51.4289 20.7484 51.0916 20.5985 50.642L17.5151 41.3924L11.3487 43.4479C11.049 43.5479 10.7546 43.4854 10.4655 43.2606C10.1765 43.0358 9.95699 42.6986 9.8071 42.2489L7.75155 36.0825C7.60166 35.6329 7.57489 35.2314 7.67124 34.8781C7.76758 34.5248 7.96564 34.2982 8.26539 34.1983L14.4318 32.1428L11.3485 22.8931C11.1986 22.4435 11.1718 22.042 11.2682 21.6887C11.3645 21.3355 11.5626 21.1089 11.8623 21.0089L15.9733 19.6386C16.273 19.5386 16.5674 19.6011 16.8565 19.8259C17.1455 20.0507 17.365 20.3879 17.5149 20.8376L20.5982 30.0872L26.7646 28.0316C27.0644 27.9317 27.3588 27.9942 27.6479 28.219C27.9369 28.4438 28.1564 28.781 28.3063 29.2306ZM47.2311 28.3552C48.4355 29.292 49.3214 30.6114 49.8888 32.3136C50.4563 34.0158 50.5393 35.6029 50.1378 37.0749C49.7364 38.5469 48.9683 39.4721 47.8335 39.8504C46.6987 40.2287 45.5291 39.9494 44.3247 39.0127C43.1203 38.076 42.2344 36.7565 41.667 35.0543C41.0995 33.3521 41.0166 31.765 41.418 30.293C41.8194 28.821 42.5876 27.8958 43.7223 27.5176C44.8571 27.1393 46.0267 27.4185 47.2311 28.3552ZM51.3419 13.2816C52.5463 14.2184 53.4322 15.5378 53.9996 17.24C54.567 18.9422 54.65 20.5293 54.2486 22.0013C53.8471 23.4734 53.079 24.3985 51.9442 24.7768C50.8094 25.1551 49.6398 24.8759 48.4355 23.9391C47.2311 23.0024 46.3451 21.683 45.7777 19.9808C45.2103 18.2786 45.1273 16.6915 45.5288 15.2194C45.9302 13.7474 46.6983 12.8223 47.8331 12.444C48.9679 12.0657 50.1375 12.3449 51.3419 13.2816ZM65.2729 39.711C66.8787 33.8229 66.5467 27.4744 64.2771 20.6657C62.0074 13.8569 58.4638 8.57911 53.6462 4.8322C48.8286 1.08529 44.1502 -0.0316008 39.6111 1.48152L10.8345 11.0741C6.29528 12.5872 3.22282 16.2879 1.61705 22.176C0.0112762 28.0641 0.343231 34.4125 2.61291 41.2213C4.88259 48.03 8.42622 53.3079 13.2438 57.0548C18.0614 60.8017 22.7398 61.9186 27.2789 60.4054C31.3899 59.0351 34.3232 55.7734 36.0788 50.6204L43.1445 48.2651C47.6409 51.334 51.9446 52.1832 56.0555 50.8128C60.5947 49.2997 63.6672 45.5991 65.2729 39.711ZM82.8851 30.8224C84.1224 30.3957 85.0078 30.0224 85.5411 29.7024V19.1424H78.5331V22.5024H82.0531V27.2704C81.5198 27.4197 80.9651 27.537 80.3891 27.6224C79.8131 27.7077 79.2798 27.7504 78.7891 27.7504C77.1678 27.7504 75.9731 27.2597 75.2051 26.2784C74.4584 25.297 74.0851 24.0384 74.0851 22.5024V17.9264C74.0851 16.305 74.4584 15.025 75.2051 14.0864C75.9518 13.1264 77.1571 12.6464 78.8211 12.6464C79.5678 12.6464 80.3144 12.7424 81.0611 12.9344C81.8291 13.105 82.7358 13.393 83.7811 13.7984L84.9651 10.4384C83.7704 9.90503 82.6718 9.54236 81.6691 9.35036C80.6664 9.13703 79.6958 9.03036 78.7571 9.03036C76.8371 9.03036 75.2371 9.40369 73.9571 10.1504C72.6984 10.897 71.7491 11.9424 71.1091 13.2864C70.4691 14.609 70.1491 16.1557 70.1491 17.9264V22.5024C70.1491 24.2304 70.4691 25.7664 71.1091 27.1104C71.7491 28.4544 72.6878 29.5104 73.9251 30.2784C75.1838 31.0464 76.7411 31.4304 78.5971 31.4304C80.2398 31.4304 81.6691 31.2277 82.8851 30.8224ZM100.662 26.8544L102.006 31.1104H106.006L98.7104 9.35036H95.3184L88.0544 31.1104H91.8624L93.2064 26.8544H100.662ZM94.2944 23.3344L95.2864 20.1984L96.9504 14.6944L98.5504 20.1984L99.5424 23.3344H94.2944ZM119.913 24.2304L113.833 9.35036H109.641V31.1104H113.321V22.7904L112.841 15.1424L118.121 28.5504H121.545L126.953 15.1744L126.473 22.7904V31.1104H130.153V9.35036H125.961L119.913 24.2304ZM148.78 31.1104V27.4304H140.012V21.9264H147.5V18.2464H140.012V13.0304H148.46V9.35036H136.172V31.1104H148.78ZM74.1787 62.2304L68.0987 47.3504H63.9067V69.1104H67.5867V60.7904L67.1067 53.1424L72.3867 66.5504H75.8107L81.2187 53.1744L80.7387 60.7904V69.1104H84.4187V47.3504H80.2267L74.1787 62.2304ZM100.678 64.8544L102.022 69.1104H106.022L98.726 47.3504H95.334L88.07 69.1104H91.878L93.222 64.8544H100.678ZM94.31 61.3344L95.302 58.1984L96.966 52.6944L98.566 58.1984L99.558 61.3344H94.31ZM109.657 47.3504V69.1104H113.337V60.7904L113.081 53.3024C114.723 55.713 116.27 58.2837 117.721 61.0144C119.193 63.7237 120.611 66.4224 121.977 69.1104H125.497V47.3504H121.817V55.3504L122.105 61.8464C120.867 59.265 119.491 56.7584 117.977 54.3264C116.462 51.873 114.862 49.5477 113.177 47.3504H109.657ZM131.5 69.1104H135.34V47.3504H131.5V69.1104ZM151.584 64.8544L152.928 69.1104H156.928L149.632 47.3504H146.24L138.976 69.1104H142.784L144.128 64.8544H151.584ZM145.216 61.3344L146.208 58.1984L147.872 52.6944L149.472 58.1984L150.464 61.3344H145.216Z" fill="#0C14D5"/>
</svg>
